<?xml version="1.0" encoding="UTF-8"?>
<svg width="256px" height="773px" viewBox="0 0 256 773" version="1.1" xmlns="http://www.w3.org/2000/svg" xmlns:xlink="http://www.w3.org/1999/xlink">
    <!-- Generator: sketchtool 41.2 (35397) - http://www.bohemiancoding.com/sketch -->
    <title>AC2F5867-0BB8-4520-9191-EF0DACC3D506</title>
    <desc>Created with sketchtool.</desc>
    <defs>
        <linearGradient x1="93.1280231%" y1="-8.9761913%" x2="23.734979%" y2="135.978628%" id="linearGradient-1">
            <stop stop-color="#91CBFD" offset="0%"></stop>
            <stop stop-color="#FFFFFF" stop-opacity="0.160467618" offset="100%"></stop>
        </linearGradient>
        <path d="M229.873158,411.715429 L221.376525,416.591573 C219.499792,417.669174 218.338406,419.667787 218.33504,421.833091 L218.244149,455.428982 C218.232366,460.094657 223.273455,463.026068 227.319792,460.702492 L235.814743,455.824664 C237.693158,454.748747 238.854545,452.750134 238.859594,450.58483 L238.948802,416.988939 C238.960584,412.32158 233.917812,409.391853 229.873158,411.715429 Z" id="path-2"></path>
        <mask id="mask-3" maskContentUnits="userSpaceOnUse" maskUnits="objectBoundingBox" x="0" y="0" width="20.7046947" height="50.6144572" fill="white">
            <use xlink:href="#path-2"></use>
        </mask>
        <path d="M11.6283366,500.7586 L3.13170297,505.634744 C1.2549703,506.712345 0.0935841584,508.710957 0.0902178218,510.876262 L0.00100990099,544.472153 C-0.0124554455,549.137828 5.02863366,552.069239 9.0749703,549.745662 L17.571604,544.867834 C19.4483366,543.791917 20.6097228,541.793304 20.6147723,539.628 L20.7039802,506.032109 C20.7157624,501.36475 15.6729901,498.435023 11.6283366,500.7586 Z" id="path-4"></path>
        <mask id="mask-5" maskContentUnits="userSpaceOnUse" maskUnits="objectBoundingBox" x="0" y="0" width="20.7030178" height="50.6144572" fill="white">
            <use xlink:href="#path-4"></use>
        </mask>
        <polyline id="path-6" points="188.938 127.982783 190.621168 205.623926 144.83899 232.065557 144.83899 364.770421 53.2729505 417.655368 53.2729505 284.94882 7.49077228 311.390451 7.49245545 232.065557"></polyline>
        <mask id="mask-7" maskContentUnits="userSpaceOnUse" maskUnits="objectBoundingBox" x="0" y="0" width="183.130396" height="289.672585" fill="white">
            <use xlink:href="#path-6"></use>
        </mask>
        <polyline id="path-8" points="51.9270891 414.780699 97.7092673 442.911133 97.7092673 313.120843 54.7358898 304.108742"></polyline>
        <mask id="mask-9" maskContentUnits="userSpaceOnUse" maskUnits="objectBoundingBox" x="0" y="0" width="45.7821782" height="138.80239" fill="white">
            <use xlink:href="#path-8"></use>
        </mask>
        <path d="M0.814653465,0.0792846238 L19.7435644,97.0263206 L48.2732673,183.576192 L51.2036634,185.180807 C52.880099,186.098451 54.7837624,186.522757 56.6907921,186.401527 L62.0533663,186.058041 L38.0783168,101.575817 L25.0792079,10.6970207 C25.0792079,10.6970207 16.2206931,10.5673719 12.4318812,10.2609291 L0.814653465,0.0792846238 Z" id="path-10"></path>
        <polyline id="path-12" points="91.3297327 128.42411 119.943594 111.89809 119.943594 178.002169 91.3297327 194.528188"></polyline>
        <mask id="mask-13" maskContentUnits="userSpaceOnUse" maskUnits="objectBoundingBox" x="0" y="0" width="28.6138614" height="82.6300981" fill="white">
            <use xlink:href="#path-12"></use>
        </mask>
        <polyline id="path-14" points="7.14491089 312.101816 52.9270891 339.013214 52.9270891 259.690004"></polyline>
        <mask id="mask-15" maskContentUnits="userSpaceOnUse" maskUnits="objectBoundingBox" x="0" y="0" width="45.7821782" height="79.3232105" fill="white">
            <use xlink:href="#path-14"></use>
        </mask>
        <path d="M54.1845149,33.2433448 L54.1845149,129.106045 C54.1845149,130.203851 55.3728317,130.889138 56.3238218,130.340235 L110.700257,98.9349043 C111.141248,98.6806578 111.412238,98.2092074 111.412238,97.7007145 L111.412238,1.83801439 C111.412238,0.740208506 110.225604,0.0549217012 109.274614,0.603824646 L54.8981782,32.0091551 C54.4571881,32.2634015 54.1845149,32.7331682 54.1845149,33.2433448" id="path-16"></path>
        <mask id="mask-17" maskContentUnits="userSpaceOnUse" maskUnits="objectBoundingBox" x="0" y="0" width="57.2277228" height="130.123033" fill="white">
            <use xlink:href="#path-16"></use>
        </mask>
        <linearGradient x1="88.3109661%" y1="-30.0118643%" x2="8.49028915%" y2="109.928334%" id="linearGradient-18">
            <stop stop-color="#91CBFD" offset="0%"></stop>
            <stop stop-color="#FFFFFF" stop-opacity="0.160467618" offset="100%"></stop>
        </linearGradient>
    </defs>
    <g id="Augray-Main" stroke="none" stroke-width="1" fill="none" fill-rule="evenodd">
        <g id="08---Loading-screen" transform="translate(-248.000000, -230.000000)">
            <g id="Humanoid" transform="translate(248.000000, 230.000000)">
                <g>
                    <use id="Stroke-3" stroke="#91CBFD" mask="url(#mask-3)" stroke-width="4" stroke-dasharray="3" fill="url(#linearGradient-1)" xlink:href="#path-2"></use>
                    <path d="M237.585436,455.103345 L254.326228,464.83206" id="Stroke-5" stroke="#D7277C" stroke-width="2" stroke-dasharray="4"></path>
                    <path d="M218.976832,457.951242 L235.719307,467.679957" id="Stroke-7" stroke="#91CBFD" stroke-width="2" stroke-dasharray="3"></path>
                    <path d="M236.273743,411.778065 L253.014535,421.50678" id="Stroke-9" stroke="#91CBFD" stroke-width="2" stroke-dasharray="3"></path>
                    <path d="M220.224396,420.545358 L236.966871,430.274074" id="Stroke-11" stroke="#91CBFD" stroke-width="2" stroke-dasharray="3"></path>
                    <path d="M245.920822,421.3576 L237.424188,426.233744 C235.547455,427.313029 234.386069,429.311641 234.382703,431.476946 L234.293495,465.072837 C234.28003,469.738512 239.321119,472.669923 243.367455,470.346346 L251.864089,465.468518 C253.740822,464.392601 254.902208,462.393988 254.907257,460.228684 L254.996465,426.632793 C255.008248,421.965434 249.967158,419.035707 245.920822,421.3576" id="Fill-13" stroke="#D7277C" stroke-width="2" stroke-linecap="round" stroke-linejoin="round" fill="#FFFFFF"></path>
                    <use id="Stroke-15" stroke="#91CBFD" mask="url(#mask-5)" stroke-width="4" stroke-dasharray="3" fill="url(#linearGradient-1)" xlink:href="#path-4"></use>
                    <path d="M19.3406139,544.146515 L36.0814059,553.875231" id="Stroke-17" stroke="#D7277C" stroke-width="2" stroke-dasharray="4"></path>
                    <path d="M0.733693069,546.994412 L17.4744851,556.723128" id="Stroke-19" stroke="#91CBFD" stroke-width="2" stroke-dasharray="3"></path>
                    <path d="M18.0289208,500.821067 L34.7697129,510.549782" id="Stroke-21" stroke="#91CBFD" stroke-width="2" stroke-dasharray="3"></path>
                    <path d="M1.98125743,509.588529 L18.7220495,519.317244" id="Stroke-23" stroke="#91CBFD" stroke-width="2" stroke-dasharray="3"></path>
                    <path d="M27.676,510.40077 L19.1810495,515.276914 C17.3026337,516.356199 16.1412475,518.354812 16.1378812,520.520116 L16.0486733,554.116007 C16.0352079,558.781682 21.0779802,561.713093 25.1226337,559.389516 L33.6192673,554.511689 C35.496,553.435771 36.6573861,551.437159 36.6624356,549.271854 L36.7516436,515.675963 C36.7634257,511.008605 31.7223366,508.078877 27.676,510.40077" id="Fill-25" stroke="#D7277C" stroke-width="2" stroke-linecap="round" stroke-linejoin="round" fill="#FFFFFF"></path>
                    <path d="M177.530495,357.959647 C162.903762,349.512266 139.199703,349.519001 124.668911,357.966382 C110.148218,366.407027 110.215545,380.143071 124.840594,388.588768 C139.455545,397.031097 163.171386,397.031097 177.692079,388.588768 C192.222871,380.141387 192.145446,366.400292 177.530495,357.959647 M126.025545,387.900113 C112.065347,379.838312 111.991287,366.718521 125.862277,358.655036 C139.741683,350.586499 162.373564,350.593234 176.333762,358.655036 C190.29396,366.716838 190.378119,379.831577 176.498713,387.900113 C162.629406,395.963599 139.984059,395.963599 126.025545,387.900113" id="Fill-40" fill="#D7277C"></path>
                    <path d="M160.562475,512.579376 C159.714158,512.102875 158.833861,511.666783 157.89802,511.277836 L156.918416,512.057413 C157.766733,512.424471 158.603267,512.833623 159.389307,513.274766 L160.562475,512.579376 M123.778515,531.583878 L122.443762,532.174875 C123.14396,532.701889 123.906436,533.217117 124.732871,533.695302 C124.904554,533.794643 125.066139,533.88725 125.249604,533.979856 L126.402574,533.27268 C126.239307,533.17839 126.079406,533.099254 125.917822,533.006648 C125.145248,532.55877 124.423168,532.080585 123.778515,531.583878 M131.674257,535.464925 C130.728317,535.165217 129.807624,534.843621 128.903762,534.471511 L127.934257,535.259507 C128.890297,535.661924 129.878317,536.01046 130.896634,536.327005 L131.674257,535.464925 M120.578812,528.314033 L119.016832,528.674356 C119.449406,529.293976 119.945941,529.90181 120.516535,530.492807 L121.980891,530.012938 C121.454059,529.460667 120.977723,528.891559 120.578812,528.314033 M137.775743,536.747943 C136.725446,536.611559 135.675149,536.438133 134.655149,536.220929 L134.082871,537.140257 C135.18703,537.369248 136.30297,537.556144 137.427327,537.697579 L137.775743,536.747943 M119.015149,524.665344 L117.345446,524.763001 C117.476733,525.434818 117.665248,526.098216 117.958119,526.749828 L119.582376,526.525889 C119.323168,525.906268 119.13802,525.291699 119.015149,524.665344 M144.247525,537.032497 C143.155149,537.071224 142.072871,537.064489 140.990594,537.008925 L140.867723,537.990552 C142.024059,538.039381 143.192178,538.046116 144.348515,538.009073 L144.247525,537.032497 M119.198614,520.908894 L117.527228,520.748938 C117.347129,521.412336 117.246139,522.082469 117.205743,522.752602 L118.887228,522.784593 C118.915842,522.156554 119.010099,521.528515 119.198614,520.908894 M150.606535,536.315219 C149.56802,536.518953 148.519406,536.678909 147.45901,536.798456 L147.785545,537.753143 C148.931782,537.623494 150.056139,537.455119 151.146832,537.232864 L150.606535,536.315219 M121.095545,517.327555 L119.562178,516.911668 C119.082475,517.526238 118.668416,518.154277 118.318317,518.792419 L119.927426,519.076973 C120.245545,518.482609 120.637723,517.891612 121.095545,517.327555 M156.381485,534.626417 C155.482673,534.986739 154.553564,535.301601 153.589109,535.587839 L154.35495,536.451603 C155.381683,536.151895 156.388218,535.818513 157.349307,535.432933 L156.381485,534.626417 M124.591485,514.173889 L123.312277,513.535747 C122.554851,514.050975 121.863069,514.589775 121.245347,515.148781 L122.660891,515.684214 C123.236535,515.162251 123.887921,514.658809 124.591485,514.173889 M162.464455,532.72041 L161.16505,532.094055 C160.717327,532.403865 160.247723,532.713675 159.746139,533.006648 C159.478515,533.161553 159.200792,533.311407 158.923069,533.457893 L160.062574,534.178539 C160.350396,534.023634 160.65,533.863677 160.939505,533.695302 C161.471386,533.383808 161.974653,533.055477 162.464455,532.72041 M128.493069,510.872052 C127.542079,511.23911 126.634851,511.654997 125.757921,512.102875 L126.875545,512.833623 C127.688515,512.411001 128.543564,512.027106 129.440693,511.680253 L128.493069,510.872052 M166.130396,529.317549 L164.595347,528.915132 C164.149307,529.485924 163.649406,530.038194 163.073762,530.573627 L164.49099,531.093906 C165.118812,530.516379 165.662475,529.927067 166.130396,529.317549 M134.727525,509.1159 C133.636832,509.326369 132.566337,509.575564 131.507624,509.868537 L132.253267,510.742403 C133.236238,510.469636 134.241089,510.232227 135.259406,510.040279 L134.727525,509.1159 M168.069406,525.463442 L166.408119,525.322007 C166.249901,525.936576 166.007525,526.551145 165.711287,527.158979 L167.330495,527.425012 C167.658713,526.78687 167.901089,526.123472 168.069406,525.463442 M141.557822,508.396938 C140.401485,508.43398 139.255248,508.50133 138.098911,508.625928 L138.405248,509.582299 C139.475743,509.469487 140.556337,509.402137 141.638614,509.37183 L141.557822,508.396938 M168.165347,521.449378 L166.492277,521.560506 C166.626931,522.18181 166.694257,522.814901 166.665644,523.441256 L168.357228,523.453043 C168.375743,522.784593 168.308416,522.112776 168.165347,521.449378 M148.468911,508.762312 C147.332772,508.614142 146.186535,508.508065 145.038614,508.452502 L144.893861,509.420659 C145.96604,509.469487 147.05,509.575564 148.100297,509.711948 L148.468911,508.762312 M166.408119,517.551494 L164.844455,517.923603 C165.266931,518.512916 165.61198,519.108964 165.88297,519.710063 L167.510594,519.462552 C167.227822,518.817675 166.849109,518.17785 166.408119,517.551494 M154.969307,510.190133 C153.937525,509.868537 152.877129,509.589034 151.803267,509.351625 L151.209109,510.257483 C152.217327,510.481422 153.203663,510.742403 154.15802,511.047162 L154.969307,510.190133 M162.895347,514.076231 L161.570693,514.684065 C162.247327,515.174037 162.861683,515.701051 163.400297,516.2348 L164.842772,515.744829 C164.272178,515.167302 163.615743,514.615032 162.895347,514.076231" id="Fill-42" fill="#91CBFD"></path>
                    <path d="M143.383891,656.536919 C136.592307,652.613778 125.591119,652.620513 118.855079,656.536919 C112.117356,660.453324 112.140921,666.826323 118.934188,670.749464 C125.715673,674.667553 136.72696,674.667553 143.463,670.749464 C150.200723,666.833058 150.163693,660.453324 143.383891,656.536919 M120.119139,670.06081 C113.994089,666.524932 113.962109,660.764818 120.046762,657.225573 C126.133099,653.688011 136.072208,653.688011 142.198941,657.225573 C148.32399,660.764818 148.345871,666.518197 142.259535,670.054075 C136.174881,673.59332 126.244188,673.600055 120.119139,670.06081" id="Fill-44" fill="#D7277C"></path>
                    <polyline id="Stroke-46" stroke="#D7277C" stroke-width="2" points="187.560495 369.989208 167.517327 523.217317 147.655941 663.643865"></polyline>
                    <polyline id="Stroke-48" stroke="#91CBFD" stroke-width="2" stroke-dasharray="3,3" points="114.648337 373.276901 118.014673 523.218328 114.648337 663.643191"></polyline>
                    <polyline id="Stroke-50" stroke="#D7277C" stroke-width="2" points="151.181673 395.69925 139.914545 537.721993 126.430683 672.337915"></polyline>
                    <path d="M117.990099,403.295157 C103.375149,394.854512 79.6609901,394.854512 65.140297,403.295157 C50.609505,411.744222 50.6987129,425.478581 65.3119802,433.917543 C79.9387129,442.366608 103.632673,442.366608 118.163465,433.917543 C132.682475,425.478581 132.615149,411.742538 117.990099,403.295157 M66.4969307,433.228889 C52.5367327,425.167087 52.4626733,412.047297 66.3336634,403.983812 C80.2029703,395.92201 102.846634,395.92201 116.805149,403.983812 C130.765347,412.045613 130.839406,425.167087 116.971782,433.228889 C103.100792,441.292374 80.4571287,441.292374 66.4969307,433.228889" id="Fill-65" fill="#D7277C"></path>
                    <path d="M99.3469901,556.222212 C98.4986733,555.74571 97.6065941,555.316353 96.6842178,554.920672 L95.6911485,555.706984 C96.5613465,556.074041 97.3877822,556.476458 98.1839208,556.924336 L99.3469901,556.222212 M62.5529307,575.233448 L61.2181782,575.824445 C61.9166931,576.351459 62.6909505,576.859952 63.5190693,577.338137 C63.6890693,577.437479 63.8624356,577.53682 64.0341188,577.622691 L65.1870891,576.915516 C65.025505,576.834696 64.865604,576.742089 64.7040198,576.649483 C63.9297624,576.201605 63.2093663,575.72342 62.5529307,575.233448 M70.4587723,579.10776 C69.5044158,578.814787 68.5921386,578.486456 67.7000594,578.119398 L66.7187723,578.915812 C67.6748119,579.304759 68.6712475,579.660031 69.6811485,579.969841 L70.4587723,579.10776 M59.3633267,571.956868 L57.8013465,572.317191 C58.2221386,572.943546 58.7304554,573.546329 59.3128317,574.142377 L60.7771881,573.662508 L60.7654059,573.655773 C60.2284752,573.110238 59.7622376,572.546181 59.3633267,571.956868 M76.5602574,580.390779 C75.5099604,580.254395 74.4596634,580.080968 73.4312475,579.870499 L72.8673861,580.783093 C73.9614455,581.018818 75.075703,581.204031 76.2118416,581.340414 L76.5602574,580.390779 M57.7996634,568.308179 L56.1198614,568.412571 C56.2511485,569.084388 56.4598614,569.746103 56.7308515,570.399398 L58.3685743,570.168724 C58.0975842,569.554155 57.9225347,568.934534 57.7996634,568.308179 M83.0320396,580.677016 C81.9396634,580.714059 80.8590693,580.707324 79.7751089,580.66523 L79.6522376,581.633387 C80.8085743,581.682216 81.9665941,581.695686 83.1330297,581.651908 L83.0320396,580.677016 M57.9730297,564.558465 L56.3218416,564.396824 C56.1215446,565.060222 56.0188713,565.730356 55.9902574,566.395437 L57.6717426,566.427429 C57.7020396,565.799389 57.8047129,565.178085 57.9730297,564.558465 M89.3910495,579.958055 C88.3525347,580.161788 87.3039208,580.321745 86.2435248,580.441291 L86.5818416,581.402713 C87.706198,581.273064 88.8406535,581.097954 89.9414455,580.882434 L89.3910495,579.958055 M59.8817426,560.97039 L58.3567921,560.561239 C57.8669901,561.169073 57.4529307,561.797112 57.1028317,562.435254 L58.7220396,562.726543 C59.0300594,562.125444 59.4121386,561.541182 59.8817426,560.97039 M95.1744158,578.275987 C94.2671881,578.629575 93.3481782,578.951171 92.3736238,579.230674 L93.1394653,580.106225 C94.1678812,579.808201 95.1727327,579.461348 96.1338218,579.075769 L95.1744158,578.275987 M63.376,557.816724 L62.1085743,557.183634 C61.3410495,557.69381 60.6475842,558.232611 60.0298614,558.791616 L61.4454059,559.327049 C62.0210495,558.805086 62.6724356,558.301644 63.376,557.816724 M101.238871,576.36998 L99.9495644,575.748676 C99.5018416,576.058486 99.0322376,576.35651 98.5205545,576.656218 C98.2529307,576.811123 97.9853069,576.954242 97.7075842,577.100728 L98.8470891,577.821374 C99.1365941,577.666469 99.4345149,577.506513 99.7122376,577.344872 C100.257584,577.026643 100.769267,576.705047 101.238871,576.36998 M67.2775842,554.514888 C66.3383762,554.88868 65.4193663,555.297832 64.5306535,555.750761 L65.6600594,556.476458 C66.4730297,556.053836 67.3381782,555.676676 68.2151089,555.329823 L67.2775842,554.514888 M104.914911,572.962068 L103.371446,572.564702 C102.933822,573.128759 102.423822,573.687764 101.848178,574.221514 L103.285604,574.743477 C103.893228,574.16595 104.44699,573.569902 104.914911,572.962068 M73.5238218,552.76547 C72.4213465,552.969204 71.3508515,553.218399 70.3039208,553.518107 L71.0377822,554.398709 C72.0106535,554.119206 73.015505,553.881797 74.0540198,553.68985 L73.5238218,552.76547 M106.853921,569.106277 L105.192634,568.964842 C105.036099,569.579411 104.802139,570.200715 104.495802,570.801815 L106.11501,571.081317 C106.443228,570.429706 106.685604,569.778094 106.853921,569.106277 M80.3541188,552.046508 C79.186,552.076816 78.0296634,552.150901 76.8834257,552.268763 L77.2015446,553.231869 C78.2720396,553.119058 79.3408515,553.044973 80.4231287,553.026451 L80.3541188,552.046508 M106.949861,565.092214 L105.276792,565.203341 C105.411446,565.836432 105.468673,566.462787 105.460257,567.090827 L107.131644,567.102613 C107.150158,566.43248 107.092931,565.755612 106.949861,565.092214 M87.2635248,552.411882 C86.1189703,552.256977 84.9710495,552.150901 83.8231287,552.095337 L83.6800594,553.063494 C84.7505545,553.125793 85.8227327,553.225134 86.8747129,553.361518 L87.2635248,552.411882 M105.180851,561.201064 L103.630653,561.566438 C104.051446,562.155751 104.396495,562.751799 104.667485,563.352899 L106.305208,563.112122 C106.002238,562.467245 105.633624,561.820685 105.180851,561.201064 M93.7420396,553.839703 C92.7220396,553.511372 91.6616436,553.231869 90.5877822,552.99446 L89.9835248,553.907053 C91.0018416,554.124257 91.9881782,554.385239 92.9425347,554.689998 L93.7420396,553.839703 M101.669762,557.725802 L100.355208,558.326901 C101.021743,558.823607 101.646198,559.343887 102.186495,559.87932 L103.639069,559.394399 C103.046594,558.816872 102.400257,558.257867 101.669762,557.725802" id="Fill-67" fill="#91CBFD"></path>
                    <path d="M83.8500594,701.861653 C77.0685743,697.945248 66.0572871,697.945248 59.3212475,701.861653 C52.5734257,705.784794 52.6188713,712.157793 59.4020396,716.074198 C66.1818416,719.992288 77.1813465,719.997339 83.9308515,716.074198 C90.6668911,712.157793 90.6298614,705.778059 83.8500594,701.861653 M60.5869901,715.385544 C54.4602574,711.849666 54.4181782,706.094604 60.5146139,702.550308 C66.5992673,699.012746 76.5383762,699.012746 82.6651089,702.550308 C88.7918416,706.089553 88.8221386,711.847983 82.7374851,715.385544 C76.6410495,718.929841 66.7103564,718.92479 60.5869901,715.385544" id="Fill-69" fill="#D7277C"></path>
                    <polyline id="Stroke-73" stroke="#91CBFD" stroke-width="2" stroke-dasharray="3,3" points="55.1210693 708.974829 56.8025545 568.549966 55.1193861 418.608539"></polyline>
                    <polyline id="Stroke-75" stroke="#D7277C" stroke-width="2" points="91.8734718 440.383763 79.7106436 582.8994 66.9017327 717.67191"></polyline>
                    <polyline id="Stroke-75" stroke="#D7277C" stroke-width="2" points="127 429.468628 106.931514 566.122196 88.5499953 708.855876"></polyline>
                    <use id="Stroke-77" stroke="#91CBFD" mask="url(#mask-7)" stroke-width="4" stroke-dasharray="3" fill="url(#linearGradient-1)" xlink:href="#path-6"></use>
                    <use id="Stroke-79" stroke="#91CBFD" mask="url(#mask-9)" stroke-width="4" stroke-dasharray="3" fill="url(#linearGradient-1)" xlink:href="#path-8"></use>
                    <path d="M70.7610693,308.099896 C67.7431485,306.357214 63.967802,305.101135 59.7430495,304.464677 C53.4732475,303.515041 46.9610693,304.037004 41.3813663,305.936276 C35.8117624,307.828812 31.8546337,310.876402 30.2472079,314.501519 C28.6296832,318.131687 29.5503762,321.906657 32.8460198,325.146195 C33.9215644,326.200223 35.1923564,327.144808 36.6213663,327.969846 C44.2511683,332.376223 56.3396832,333.443722 66.0263168,330.155355 C77.5189901,326.237266 81.348198,317.623194 74.5616634,310.943752 C73.4928515,309.893091 72.2153267,308.940088 70.7610693,308.099896 M37.8147327,327.277824 C36.4833465,326.50835 35.2967129,325.629432 34.3002772,324.649488 C31.2301782,321.638941 30.3751287,318.126636 31.8748317,314.74903 C33.377901,311.373109 37.0589901,308.535988 42.2431485,306.779835 C47.4289901,305.011896 53.488396,304.526976 59.3205743,305.407578 C63.2541386,305.998574 66.7635446,307.170465 69.5693861,308.791918 C70.9243366,309.573179 72.117703,310.460516 73.1090891,311.440459 C79.4293861,317.653501 75.8661188,325.666474 65.1645347,329.310112 C56.1528515,332.377907 44.9109703,331.376075 37.8147327,327.277824" id="Fill-81" fill="#D7277C"></path>
                    <polyline id="Stroke-1" stroke="#D7277C" stroke-width="2" stroke-linecap="round" stroke-linejoin="round" fill="#FFFFFF" points="51.5904554 261.760533 7.82807921 232.092834 189.273624 128.011744 233.372634 154.923142"></polyline>
                    <path d="M41.2596733,405.408097 C36.0048218,402.372293 27.6748218,401.628075 21.0044257,403.899456 C17.1752178,405.204363 14.456901,407.295582 13.3460099,409.795953 C12.2351188,412.299691 12.8612574,414.899403 15.1335347,417.127006 C15.8539307,417.854387 16.7476931,418.504315 17.7256139,419.070055 C22.9804653,422.105859 31.297,422.848393 37.9690792,420.578697 C41.7949208,419.273789 44.5250198,417.175835 45.6375941,414.675464 C46.746802,412.175094 46.1223465,409.573698 43.8601683,407.351146 C43.1212574,406.627133 42.2460099,405.977205 41.2596733,405.408097 M18.9122475,418.379717 C18.026901,417.869541 17.2391782,417.286963 16.5760099,416.637035 C14.5410594,414.633371 13.9704653,412.299691 14.9753168,410.045148 C15.9700693,407.799024 18.4241287,405.911538 21.8544257,404.739648 C27.8633366,402.703992 35.3332376,403.36739 40.0612574,406.098435 C40.9432376,406.606928 41.7376931,407.19119 42.4059109,407.847853 C44.4425446,409.841414 45.0114554,412.18688 44.006604,414.426269 C43.0017525,416.679128 40.5594752,418.561562 37.117396,419.740188 C31.1185842,421.780895 23.636901,421.109078 18.9122475,418.379717" id="Fill-83" fill="#D7277C"></path>
                    <path d="M27.2025248,497.820285 C23.6106436,495.745904 17.9316337,495.240778 13.3786634,496.798248 C10.7596535,497.685585 8.8930198,499.118458 8.13222772,500.830833 C7.38153465,502.538157 7.80905941,504.319566 9.35925743,505.834942 C9.86589109,506.338383 10.4583663,506.777843 11.135,507.168473 C14.7235149,509.241171 20.4143069,509.744612 24.9689604,508.192194 C27.5879703,507.304857 29.454604,505.870301 30.2170792,504.159609 C30.9660891,502.452285 30.5503465,500.675928 28.9900495,499.1555 C28.4817327,498.65711 27.8791584,498.210916 27.2025248,497.820285 M12.314901,506.474767 C11.7426238,506.143068 11.2326238,505.765908 10.8034158,505.34497 C8.07836634,502.669489 9.62351485,499.204329 14.2303465,497.635073 C18.1134158,496.311644 22.9693564,496.746052 26.0344059,498.515675 C26.6066832,498.847374 27.115,499.224534 27.5458911,499.645472 C30.2810396,502.327688 28.7257921,505.784429 24.1189604,507.355369 C20.2358911,508.677114 15.3799505,508.242706 12.314901,506.474767" id="Fill-85" fill="#D7277C"></path>
                    <polyline id="Stroke-87" stroke="#D7277C" stroke-width="2" points="31.7112277 311.469756 14.1625149 408.239998 8.99350495 499.770406"></polyline>
                    <polyline id="Stroke-89" stroke="#D7277C" stroke-width="2" points="76.3333663 325.289987 44.8177228 416.241185 29.4335644 505.10453"></polyline>
                    <polyline id="Stroke-91" stroke="#D7277C" stroke-width="2" points="20.7329307 508.585518 29.355802 421.695529 50.085703 333.269959"></polyline>
                    <path d="M208.578723,222.977509 C207.920604,222.596981 207.218723,222.234975 206.473079,221.893173 C201.383178,219.572964 195.04605,218.535773 188.623079,218.970181 C182.196743,219.404589 176.455455,221.260083 172.466347,224.20328 C168.465455,227.151529 166.686347,230.812004 167.457238,234.536462 C168.118723,237.713701 170.55595,240.592916 174.40199,242.815468 C175.080307,243.207782 175.79902,243.573156 176.551396,243.920009 C181.641297,246.241902 187.990208,247.285828 194.413178,246.849736 C200.827733,246.410277 206.56902,244.553099 210.558129,241.611586 C218.228327,235.972702 217.194861,227.954678 208.578723,222.977509 M175.576842,242.115027 C172.001792,240.049064 169.746347,237.366848 169.128624,234.423651 C168.423376,230.961858 170.064465,227.540475 173.775851,224.809431 C177.49902,222.073335 182.834663,220.342438 188.82001,219.938338 C194.795257,219.529186 200.691396,220.49566 205.427832,222.662648 C206.136446,222.985928 206.791198,223.32773 207.405554,223.679634 C215.400604,228.298164 216.373475,235.765601 209.238525,241.008803 C205.515356,243.746582 200.179713,245.479162 194.204465,245.876528 C188.229218,246.285679 182.333079,245.317522 177.596644,243.150534 C176.88298,242.827254 176.209713,242.480401 175.576842,242.115027" id="Fill-95" fill="#D7277C"></path>
                    <path d="M214.431941,321.397996 C213.974119,321.133647 213.482634,320.881084 212.960851,320.641992 C209.459861,319.042428 205.097089,318.326834 200.663624,318.626541 C196.240257,318.929617 192.286495,320.207584 189.544614,322.226402 C186.79095,324.248587 185.57402,326.774214 186.102535,329.345303 C186.563723,331.529128 188.236792,333.521006 190.88105,335.048168 C191.342238,335.315885 191.847188,335.570131 192.362238,335.805856 C199.589762,339.112744 210.104515,338.393782 215.790257,334.216395 C221.056891,330.335348 220.336495,324.807593 214.431941,321.397996 M192.091248,334.369617 C189.706198,332.992308 188.186297,331.20248 187.772238,329.232491 C187.299267,326.917333 188.38996,324.652687 190.876,322.834236 C193.340158,321.014101 196.88996,319.860731 200.872337,319.59975 C204.856396,319.326982 208.779861,319.971859 211.927386,321.406415 C212.398673,321.616884 212.829564,321.840823 213.24699,322.083283 C218.567485,325.154445 219.195307,330.119828 214.458871,333.608561 C209.348772,337.375113 199.904515,338.009887 193.397386,335.043117 C192.936198,334.830964 192.500257,334.605342 192.091248,334.369617" id="Fill-97" fill="#D7277C"></path>
                    <path d="M233.852505,411.317559 C233.544485,411.140765 233.21795,410.970706 232.871218,410.81075 C227.929436,408.551156 220.745673,409.041127 216.862604,411.896769 C213.257257,414.553729 213.750426,418.327016 217.79003,420.660695 C218.103099,420.840857 218.424584,421.014283 218.789832,421.175923 C223.728248,423.435518 230.913693,422.943862 234.798446,420.089904 C238.407158,417.436311 237.908941,413.661341 233.852505,411.317559 M218.953099,419.96699 C215.509337,417.976796 215.107059,414.760831 218.182208,412.499552 C221.489634,410.066532 227.626465,409.650645 231.836069,411.573489 C232.135673,411.709873 232.415079,411.859727 232.684386,412.014632 C236.133198,414.008194 236.548941,417.22921 233.475475,419.488804 C230.169733,421.921825 224.044683,422.342763 219.823297,420.4115 C219.515277,420.271749 219.225772,420.121895 218.953099,419.96699" id="Fill-99" fill="#D7277C"></path>
                    <polyline id="Stroke-101" stroke="#D7277C" stroke-width="2" points="168.143297 233.524023 186.925772 330.061907 215.339337 417.22298"></polyline>
                    <polyline id="Stroke-103" stroke="#D7277C" stroke-width="2" points="214.736089 230.190195 218.393614 326.379543 236.32104 414.766387"></polyline>
                    <polyline id="Stroke-105" stroke="#D7277C" stroke-width="2" points="229.478624 421.170198 205.966446 337.080288 193.181099 247.16123"></polyline>
                    <g id="Group-109" transform="translate(167.475248, 235.546565)">
                        <mask id="mask-11" fill="white">
                            <use xlink:href="#path-10"></use>
                        </mask>
                        <g id="Clip-108"></g>
                    </g>
                    <path d="M189.273287,207.187457 L232.566059,232.633992 C233.67695,233.287287 233.670218,234.898637 232.554277,235.545198 L190.123287,260.050515 C189.598139,260.35359 188.951802,260.350223 188.428337,260.04378 L143.492792,233.629089" id="Stroke-110" stroke="#33FFFF" stroke-width="2"></path>
                    <path d="M189.273287,393.394868 L144.839327,366.454846" id="Stroke-112" stroke="#F9008F" stroke-width="2"></path>
                    <use id="Stroke-118-Copy" stroke="#91CBFD" mask="url(#mask-13)" stroke-width="4" stroke-dasharray="3" fill="url(#linearGradient-1)" xlink:href="#path-12"></use>
                    <polygon id="Path-2" stroke="#91CBFD" stroke-width="2" stroke-dasharray="3,3" points="92 130 92 194.597077 118.003789 209.213772 118.437935 146.202476"></polygon>
                    <polyline id="Stroke-118" stroke="#D7277C" stroke-width="2" stroke-linecap="round" stroke-linejoin="round" fill="#FFFFFF" points="119.329733 144.42411 147.943594 127.89809 147.943594 194.002169 117.542111 210.765939 118.872031 146.150106"></polyline>
                    <use id="Stroke-120" stroke="#91CBFD" mask="url(#mask-15)" stroke-width="4" stroke-dasharray="3" fill="url(#linearGradient-1)" xlink:href="#path-14"></use>
                    <g id="Group-125" transform="translate(54.702970, 97.478953)">
                        <polyline id="Fill-122" fill="#FFFFFF" points="57.4815446 64.8670063 71.5713465 44.2915647 76.4474851 34.2345178 57.4815446 0.178962704 0.253821782 33.231002"></polyline>
                        <polyline id="Stroke-124" points="57.4815446 64.8670063 71.5713465 44.2915647 76.4474851 34.2345178 57.4815446 0.178962704 0.253821782 33.231002"></polyline>
                    </g>
                    <use id="Fill-126" stroke="#91CBFD" mask="url(#mask-17)" stroke-width="4" stroke-dasharray="3" fill="url(#linearGradient-1)" xlink:href="#path-16"></use>
                    <path d="M55.7983762,131.009494 L109.659762,162.116801 C110.782436,162.765045 112.184515,161.955161 112.184515,160.658672 L112.184515,65.3920201 C112.184515,64.7909208 111.864713,64.2352829 111.342931,63.9338914 L57.4815446,32.826585" id="Stroke-132" stroke="#91CBFD" stroke-width="2" stroke-linejoin="round" stroke-dasharray="3"></path>
                    <path d="M112.184515,65.2433448 L112.184515,161.106045 C112.184515,162.203851 113.372832,162.889138 114.323822,162.340235 L168.700257,130.934904 C169.141248,130.680658 169.412238,130.209207 169.412238,129.700715 L169.412238,33.8380144 C169.412238,32.7402085 168.225604,32.0549217 167.274614,32.6038246 L112.898178,64.0091551 C112.457188,64.2634015 112.184515,64.7331682 112.184515,65.2433448" id="Fill-126" stroke="#D7277C" stroke-width="2" fill="#FFFFFF"></path>
                    <path d="M169.412238,33.052376 L111.379558,1.37867493" id="Stroke-128" stroke="#91CBFD" stroke-width="2" stroke-linejoin="round" stroke-dasharray="3"></path>
                    <path d="M133.947376,61.3875542 L112.18401,106.124828 L112.18401,64.4199904 L166.88698,32.8260798 C168.009653,32.1778356 169.411733,32.98772 169.411733,34.2842085 L169.411733,87.3829915 L133.947376,61.3875542 Z" id="Fill-130" stroke="#D7277C" stroke-width="2" fill="#FFFFFF"></path>
                    <g id="Group" transform="translate(43.000000, 723.000000)" stroke-width="2">
                        <path d="M16.6059208,6.56795027 L16.7809703,16.3640157 C16.8213663,18.52932 18.0113663,20.5094116 19.9049307,21.5583887 L49.288,37.8301618 C53.3696832,40.0897562 58.3653267,37.08426 58.2811683,32.418585 L58.1044356,22.6208358 C58.0657228,20.4555315 56.8757228,18.4754399 54.9821584,17.4264628 L25.5990891,1.15468964 C21.5174059,-1.10490469 16.5217624,1.90227525 16.6059208,6.56795027 Z" id="Stroke-52" stroke="#D7277C"></path>
                        <path d="M41.4935842,29.5962809 L58.0828911,19.6116353" id="Stroke-54" stroke="#D7277C"></path>
                        <path d="M38.7325248,47.9415939 L55.3235149,37.9569483" id="Stroke-56" stroke="#D7277C"></path>
                        <path d="M3.78772277,10.5537265 L20.3787129,0.569080916" id="Stroke-58" stroke="#D7277C"></path>
                        <path d="M4.57155446,28.8185562 L21.1625446,18.8322268" id="Stroke-60" stroke="#F9008F"></path>
                        <path d="M0.605920792,16.5679503 L0.780970297,26.3640157 C0.821366337,28.52932 2.01136634,30.5094116 3.90493069,31.5583887 L33.288,47.8301618 C37.3696832,50.0897562 42.3653267,47.08426 42.2811683,42.418585 L42.1044356,32.6208358 C42.0657228,30.4555315 40.8757228,28.4754399 38.9821584,27.4264628 L9.59908911,11.1546896 C5.51740594,8.89509531 0.521762376,11.9022752 0.605920792,16.5679503 Z" id="Stroke-52-Copy" stroke="#91CBFD" stroke-dasharray="3" fill="url(#linearGradient-1)"></path>
                    </g>
                    <g id="Group-Copy" transform="translate(113.000000, 673.000000)" stroke-width="2">
                        <path d="M16.6059208,6.56795027 L16.7809703,16.3640157 C16.8213663,18.52932 18.0113663,20.5094116 19.9049307,21.5583887 L49.288,37.8301618 C53.3696832,40.0897562 58.3653267,37.08426 58.2811683,32.418585 L58.1044356,22.6208358 C58.0657228,20.4555315 56.8757228,18.4754399 54.9821584,17.4264628 L25.5990891,1.15468964 C21.5174059,-1.10490469 16.5217624,1.90227525 16.6059208,6.56795027 Z" id="Stroke-52" stroke="#D7277C"></path>
                        <path d="M41.4935842,29.5962809 L58.0828911,19.6116353" id="Stroke-54" stroke="#D7277C"></path>
                        <path d="M38.7325248,47.9415939 L55.3235149,37.9569483" id="Stroke-56" stroke="#D7277C"></path>
                        <path d="M3.78772277,10.5537265 L20.3787129,0.569080916" id="Stroke-58" stroke="#D7277C"></path>
                        <path d="M4.57155446,28.8185562 L21.1625446,18.8322268" id="Stroke-60" stroke="#F9008F"></path>
                        <path d="M0.605920792,16.5679503 L0.780970297,26.3640157 C0.821366337,28.52932 2.01136634,30.5094116 3.90493069,31.5583887 L33.288,47.8301618 C37.3696832,50.0897562 42.3653267,47.08426 42.2811683,42.418585 L42.1044356,32.6208358 C42.0657228,30.4555315 40.8757228,28.4754399 38.9821584,27.4264628 L9.59908911,11.1546896 C5.51740594,8.89509531 0.521762376,11.9022752 0.605920792,16.5679503 Z" id="Stroke-52-Copy" stroke="#91CBFD" stroke-dasharray="3" fill="url(#linearGradient-1)"></path>
                    </g>
                    <path d="M52.4320396,260.302068 L232.196099,156.480275 C233.317089,155.832031 234.720851,156.641915 234.720851,157.938403 L234.720851,233.373832 C234.720851,233.976615 234.397683,234.532253 233.879267,234.833644 L189.780257,260.302068 C189.258475,260.603459 188.938673,261.159097 188.938673,261.760196 L188.938673,392.522011 C188.938673,393.12311 188.617188,393.678748 188.097089,393.98014 L99.8973861,444.91867 C98.7747129,445.566914 97.3726337,444.757029 97.3726337,443.460541 L97.3726337,316.588192 C97.3726337,315.291703 95.9705545,314.481819 94.8478812,315.130063 L54.1152079,338.653754 C52.9942178,339.301998 51.5904554,338.492113 51.5904554,337.195625 L51.5904554,261.760196 C51.5904554,261.159097 51.9119406,260.603459 52.4320396,260.302068 Z" id="Stroke-134" stroke="#D7277C" stroke-width="2" stroke-linecap="round" stroke-linejoin="round" fill="#FFFFFF"></path>
                </g>
                <path d="M56.3325335,446.993811 L93.8366625,468.352468 L67.156839,746.162979 C67.156839,746.162979 61.1155208,746.911845 58.7240272,743.910661 C56.3325335,740.909478 55.4760088,736.886428 55.4760088,736.886428 L56.3325335,446.993811 Z" id="Path-6" fill="url(#linearGradient-18)"></path>
                <path d="M116.332534,436.993811 L149.598742,452.627141 L127.156839,724.162979 C127.156839,724.162979 121.115521,724.911845 118.724027,721.910661 C116.332534,718.909478 115.476009,714.886428 115.476009,714.886428 L116.332534,436.993811 Z" id="Path-6" fill="url(#linearGradient-18)"></path>
            </g>
        </g>
    </g>
</svg>